<?xml version="1.0" encoding="UTF-8"?>
<svg id="Layer_2" data-name="Layer 2" xmlns="http://www.w3.org/2000/svg" viewBox="0 0 116.41 41">
  <defs>
    <style>
      .cls-1 {
        isolation: isolate;
      }
    </style>
  </defs>
  <g class="cls-1">
    <g class="cls-1">
      <path d="M29.62,39.13h-.83v-5.6h2.62c.51,0,.92.16,1.25.47s.48.72.48,1.22-.16.9-.48,1.22-.74.48-1.25.48h-1.79v2.21ZM29.62,36.22h1.7c.29,0,.53-.09.71-.28.18-.19.27-.43.27-.74s-.09-.54-.27-.72-.42-.27-.71-.27h-1.7v2.01Z"/>
      <path d="M37.17,39.13h-.83v-5.6h.83v5.6Z"/>
      <path d="M40.66,33.52h4.05v.69h-3.21v1.71h2.96v.69h-2.96v1.82h3.28v.7h-4.11v-5.6Z"/>
    </g>
    <g class="cls-1">
      <path d="M48.1,39.13v-5.6h2.66c.51,0,.92.16,1.24.47.32.31.48.72.48,1.22,0,.38-.1.72-.3,1-.2.29-.47.49-.81.6l1.39,2.3h-.91l-1.33-2.21h-1.59v2.21h-.83ZM48.94,34.22v2.01h1.74c.29,0,.52-.09.71-.28.18-.19.27-.43.27-.74s-.09-.54-.27-.72c-.18-.18-.42-.27-.71-.27h-1.74Z"/>
    </g>
    <g class="cls-1">
      <path d="M60.53,38.36c-.54.55-1.23.83-2.07.83s-1.54-.27-2.06-.8c-.53-.53-.79-1.22-.79-2.07s.27-1.54.79-2.07,1.21-.8,2.05-.8,1.54.28,2.08.83l-.49.5c-.16-.19-.38-.34-.66-.45-.28-.11-.57-.17-.88-.17-.59,0-1.07.2-1.45.6-.38.4-.56.92-.56,1.55s.19,1.14.56,1.54c.37.4.86.6,1.45.6.31,0,.61-.05.88-.17.28-.11.49-.26.65-.45l.49.51Z"/>
      <path d="M64.56,39.13h-.83v-5.6h.83v5.6Z"/>
      <path d="M68.06,39.13v-5.6h.79l3.35,4.27v-4.27h.8v5.6h-.8l-3.34-4.3v4.3h-.8Z"/>
      <path d="M79.04,36.72v-.69h2.27v2.34c-.54.55-1.25.82-2.12.82s-1.57-.27-2.11-.8c-.54-.53-.81-1.22-.81-2.07s.27-1.55.81-2.08c.54-.53,1.24-.8,2.1-.8s1.56.28,2.12.83l-.49.51c-.18-.19-.41-.34-.69-.46s-.59-.17-.91-.17c-.6,0-1.09.2-1.48.61-.39.4-.58.92-.58,1.55s.19,1.14.57,1.54c.38.4.88.6,1.5.6.48,0,.89-.13,1.24-.39v-1.37h-1.44Z"/>
      <path d="M87.98,38.74c-.38.3-.87.46-1.46.46-.39,0-.78-.07-1.14-.21-.37-.14-.67-.32-.92-.56l.43-.54c.36.36.95.57,1.56.57.37,0,.68-.08.92-.23.24-.15.36-.35.36-.59,0-.21-.1-.39-.29-.52s-.51-.27-.95-.41c-.66-.21-1.14-.45-1.45-.71s-.46-.59-.46-.99c0-.45.18-.83.52-1.12s.8-.44,1.36-.44c.37,0,.73.07,1.07.2s.63.32.85.54l-.42.54c-.15-.16-.36-.3-.61-.41-.26-.11-.52-.16-.8-.16-.34,0-.61.07-.82.22-.21.15-.32.34-.32.58,0,.22.1.39.3.53.2.14.52.28.96.43.65.22,1.13.46,1.44.71s.46.57.46.96c0,.46-.19.84-.57,1.14Z"/>
    </g>
  </g>
  <g class="cls-1">
    <g class="cls-1">
      <path d="M16.59,10.4l-.12.06c-.99-4.25-2.64-5.77-6.17-5.77h-4.12v10.23h3.63c3.29,0,4.03-.93,4.46-2.76h.12v6.51h-.12c-.43-2.11-1.18-3.35-4.46-3.35h-3.63v6.45c0,3.72.62,4.5,1.8,4.81v.12H2.05v-.12c.93-.28,1.49-1.05,1.49-4.37v-13.43c0-3.32-.56-4.09-1.49-4.37v-.12h14.26l.28,6.11Z"/>
    </g>
    <g class="cls-1">
      <path d="M39.12,4.32v.12c-1.4.19-2.33,1.36-2.33,5.55v7.47c0,5.43-2.73,9.43-7.57,9.43-5.71,0-8.9-2.91-8.9-9.05v-9.05c0-3.32-.56-4.09-1.49-4.37v-.12h5.64v.12c-.99.28-1.52,1.05-1.52,4.37v9.05c0,5.64,1.8,8.53,6.26,8.53s7.07-3.72,7.07-8.9v-7.47c0-4.19-1.15-5.36-2.57-5.55v-.12h5.4Z"/>
    </g>
    <g class="cls-1">
      <path d="M55.84,20.91c0,2.73-2.11,5.98-7.81,5.98-3.1,0-5.77-1.21-6.76-1.98l.65-5.08.12-.03c.62,4.81,3.07,6.67,5.98,6.67,4.06,0,5.46-2.36,5.46-4.4,0-6.64-11.53-5.67-11.53-12.5,0-2.91,2.79-5.58,6.82-5.58,3.04,0,5.24,1.24,6.17,2.02l-.65,5.15-.09.03c-.47-4.65-2.42-6.73-5.43-6.73-2.67,0-4.68,1.58-4.68,3.88,0,6.08,11.75,5.08,11.75,12.59Z"/>
    </g>
    <g class="cls-1">
      <path d="M64.73,26.58v.12h-5.64v-.12c.93-.28,1.49-1.05,1.49-4.37v-13.43c0-3.32-.56-4.09-1.49-4.37v-.12h5.61v.12c-.99.28-1.49,1.05-1.49,4.37v13.43c0,3.32.53,4.09,1.52,4.37Z"/>
    </g>
    <g class="cls-1">
      <path d="M90.53,15.42c0,6.76-4.59,11.47-11.01,11.47s-10.98-4.71-10.98-11.47,4.59-11.44,10.98-11.44,11.01,4.59,11.01,11.44ZM87.71,15.42c0-7.07-3.44-11.01-8.19-11.01s-8.15,3.94-8.15,11.01,3.41,11.04,8.15,11.04,8.19-4.06,8.19-11.04Z"/>
    </g>
    <g class="cls-1">
      <path d="M114.8,4.32v.12c-1.64.31-2.39,1.27-2.39,5.58v16.68h-.78l-15.57-20.18v14.48c0,4.31.9,5.27,2.76,5.58v.12h-5.89v-.12c1.67-.31,2.63-1.27,2.63-5.58V7.92c0-2.17-1.05-3.13-2.54-3.5v-.12h4.59l14.26,18.48v-12.74c0-4.31-1.02-5.27-2.76-5.58v-.12h5.67Z"/>
    </g>
  </g>
</svg>